<svg width="119" height="114" viewBox="0 0 119 114" fill="none" xmlns="http://www.w3.org/2000/svg">
<path d="M94 33.3355C94 49.1821 82.3116 62.3498 67.1035 64.6716C67.2318 63.9683 67.2678 63.2399 67.1814 62.5019C67.1814 62.5019 67.0906 61.7253 66.9717 60.7089C72.3712 59.789 77.2461 57.3115 81.11 53.7484C80.878 53.5555 80.647 53.3053 80.4193 52.9732C79.3931 51.4758 80.735 49.99 80.735 48.6806C80.735 47.3962 78.1456 47.5019 78.0507 46.6512C77.7235 43.7052 79.8586 43.665 80.9969 42.5268C82.1352 41.3885 79.8718 38.8006 78.4098 38.9676C76.9379 39.1248 72.7949 38.2879 73.1735 35.118C73.6347 31.2573 68.2548 31.5979 67.4844 29.7959C66.3613 27.1693 68.2283 23.9475 70.6633 23.2155C74.1124 22.1789 77.5102 19.3651 77.2448 16.2328C76.9441 12.6853 75.3384 9.4859 72.6938 7.58536C69.9417 6.47042 66.9741 5.78099 63.8693 5.60702C61.0984 5.71661 58.6622 6.33242 58.7734 7.60103C59.0459 10.7099 67.8863 11.5173 66.4028 14.4235C65.6294 15.9384 59.8248 18.0766 60.9089 20.3313C61.614 21.7976 63.3492 20.5409 62.7014 23.3558C62.4033 24.651 61.2676 27.0846 59.5211 27.2417C57.7351 27.4084 56.2479 22.677 51.3865 22.5218C49.0883 22.4483 45.8506 26.1076 48.5998 28.7036C50.2646 30.2758 53.3886 26.8141 54.3107 29.5182C54.9604 31.4237 54.2232 35.4266 57.2557 37.0995C58.3612 37.7094 60.0558 38.241 61.7319 39.0926C59.2442 39.6007 56.1874 40.5486 52.5779 41.939L49.5367 41.1366C50.8098 40.0768 52.8784 39.3308 52.3579 37.015C51.5934 33.6127 45.6859 34.8958 41.6132 30.8232C40.3638 29.574 37.6988 25.4258 37.7097 20.442C35.6797 24.2981 34.5242 28.6835 34.5242 33.3357C34.5242 34.7676 34.6335 36.1747 34.8435 37.5489C34.7956 37.5482 34.7483 37.5398 34.7005 37.5398C33.4179 37.5398 32.16 37.8093 30.9942 38.3188C30.7367 36.6947 30.5993 35.0312 30.5993 33.3358C30.5993 15.8563 44.8201 1.63501 62.2995 1.63501C79.7791 1.63478 94 15.8561 94 33.3355ZM70.2208 42.5752L62.4786 46.134L62.5987 44.447L67.6143 42.1829C66.8989 42.1317 66.1577 42.1122 65.4176 42.1122C62.6465 42.1122 57.9645 43.515 52.7861 45.5704L36.178 41.1897C34.6259 40.7802 32.9736 41.0324 31.6142 41.8865L30.7976 42.3995C30.0004 42.9003 29.9919 44.0593 30.7817 44.5718L40.7651 51.0488C38.3802 52.2685 36.1176 53.5072 34.1229 54.6903L29 51.9781C28.1632 51.5351 27.1738 51.4825 26.295 51.8345L25.8101 52.0289C25.0869 52.3183 24.784 53.1783 25.1662 53.8572L27.9883 58.8712L27.9895 58.8707C26.9248 59.7868 26.318 60.5465 26.318 61.0722C26.318 62.6457 28.2543 63.0389 29.961 63.0389C33.0051 63.0389 73.2063 53.8343 73.2063 45.4952C73.2061 43.8437 72.0766 43.0178 70.2208 42.5752ZM53.2709 58.8566L62.1173 55.7404C62.5069 55.603 62.9233 55.8628 62.9713 56.2732L63.7469 62.9043C63.9407 64.5613 63.0494 66.1559 61.5366 66.8592L60.7069 67.2448C60.1888 67.4856 59.5741 67.3565 59.1965 66.9277L53.0014 59.8902C52.6998 59.5474 52.8403 59.0084 53.2709 58.8566Z" fill="#1E1E1E"/>
<path d="M12.432 94.56H7.848V108H5.088V94.56H0.504V92.16H12.432V94.56ZM17.2335 108H14.5935V96.96H17.2335V108ZM14.2095 93.408C14.2095 93.184 14.2495 92.968 14.3295 92.76C14.4255 92.552 14.5535 92.368 14.7135 92.208C14.8735 92.032 15.0495 91.896 15.2415 91.8C15.4495 91.704 15.6735 91.656 15.9135 91.656C16.1375 91.656 16.3535 91.704 16.5615 91.8C16.7695 91.896 16.9535 92.032 17.1135 92.208C17.2895 92.368 17.4255 92.552 17.5215 92.76C17.6175 92.968 17.6655 93.184 17.6655 93.408C17.6655 93.648 17.6175 93.872 17.5215 94.08C17.4255 94.272 17.2895 94.448 17.1135 94.608C16.9535 94.768 16.7695 94.896 16.5615 94.992C16.3535 95.072 16.1375 95.112 15.9135 95.112C15.4495 95.112 15.0495 94.944 14.7135 94.608C14.3775 94.272 14.2095 93.872 14.2095 93.408ZM27.6986 108V100.704C27.6986 99.392 27.1786 98.736 26.1386 98.736C25.8826 98.736 25.6026 98.784 25.2986 98.88C25.0106 98.976 24.7226 99.12 24.4346 99.312C24.1626 99.488 23.9066 99.712 23.6666 99.984C23.4426 100.256 23.2826 100.568 23.1866 100.92V108H20.5466V96.96H22.6106L22.7306 98.592H22.8266C23.1466 97.92 23.6506 97.424 24.3386 97.104C25.0426 96.768 25.7866 96.6 26.5706 96.6C27.3226 96.6 28.0026 96.752 28.6106 97.056C29.2346 97.344 29.6986 97.848 30.0026 98.568C30.3226 97.912 30.8266 97.424 31.5146 97.104C32.2026 96.768 32.9386 96.6 33.7226 96.6C34.2346 96.6 34.7146 96.672 35.1626 96.816C35.6266 96.944 36.0266 97.16 36.3626 97.464C36.7146 97.768 36.9866 98.168 37.1786 98.664C37.3866 99.16 37.4906 99.768 37.4906 100.488V108H34.8506V100.704C34.8506 99.392 34.3306 98.736 33.2906 98.736C33.0346 98.736 32.7546 98.784 32.4506 98.88C32.1626 98.976 31.8746 99.12 31.5866 99.312C31.3146 99.488 31.0586 99.712 30.8186 99.984C30.5946 100.256 30.4346 100.568 30.3386 100.92V108H27.6986ZM45.6017 96.6C47.0097 96.6 48.0977 96.96 48.8657 97.68C49.6337 98.384 50.0177 99.384 50.0177 100.68C50.0177 100.856 50.0017 101.048 49.9697 101.256C49.9537 101.448 49.9217 101.64 49.8737 101.832C49.8417 102.024 49.7937 102.2 49.7297 102.36C49.6817 102.504 49.6257 102.624 49.5617 102.72H42.5777C42.6097 103.2 42.6977 103.656 42.8417 104.088C42.9857 104.504 43.1937 104.872 43.4657 105.192C43.7377 105.496 44.0657 105.744 44.4497 105.936C44.8497 106.112 45.3137 106.2 45.8417 106.2C46.4337 106.2 47.0577 106.088 47.7137 105.864C48.3857 105.64 48.9537 105.36 49.4177 105.024L49.8497 106.992C49.6417 107.12 49.3857 107.264 49.0817 107.424C48.7777 107.568 48.4337 107.704 48.0497 107.832C47.6657 107.96 47.2497 108.064 46.8017 108.144C46.3697 108.24 45.9137 108.288 45.4337 108.288C44.5377 108.288 43.7457 108.136 43.0577 107.832C42.3697 107.512 41.7937 107.088 41.3297 106.56C40.8657 106.016 40.5137 105.392 40.2737 104.688C40.0337 103.984 39.9137 103.248 39.9137 102.48C39.9137 101.696 40.0337 100.952 40.2737 100.248C40.5297 99.528 40.8977 98.896 41.3777 98.352C41.8577 97.808 42.4497 97.384 43.1537 97.08C43.8737 96.76 44.6897 96.6 45.6017 96.6ZM45.5297 98.664C44.8577 98.664 44.2817 98.864 43.8017 99.264C43.3377 99.648 43.0017 100.176 42.7937 100.848H47.3777C47.3937 100.8 47.4017 100.744 47.4017 100.68C47.4177 100.616 47.4257 100.536 47.4257 100.44C47.4257 99.928 47.2497 99.504 46.8977 99.168C46.5457 98.832 46.0897 98.664 45.5297 98.664ZM68.682 94.56H64.098V108H61.338V94.56H56.754V92.16H68.682V94.56ZM75.2571 99.36C75.0971 99.232 74.8491 99.128 74.5131 99.048C74.1771 98.968 73.8891 98.928 73.6491 98.928C73.3291 98.928 73.0651 99.008 72.8571 99.168C72.6491 99.312 72.4651 99.512 72.3051 99.768C72.1451 100.008 72.0091 100.288 71.8971 100.608C71.7851 100.928 71.6811 101.256 71.5851 101.592V108H68.9451V96.96H71.0091L71.1291 99.264H71.2251C71.3851 98.928 71.5531 98.6 71.7291 98.28C71.9051 97.96 72.1051 97.68 72.3291 97.44C72.5531 97.184 72.8091 96.984 73.0971 96.84C73.4011 96.68 73.7531 96.6 74.1531 96.6C74.7931 96.6 75.3931 96.808 75.9531 97.224L75.2571 99.36ZM84.5244 108L84.3324 106.488H84.2364C83.8044 107.032 83.2124 107.472 82.4604 107.808C81.7244 108.128 80.9724 108.288 80.2044 108.288C79.1964 108.288 78.4044 108 77.8284 107.424C77.2524 106.832 76.9644 106.056 76.9644 105.096C76.9644 104.44 77.1004 103.856 77.3724 103.344C77.6604 102.816 78.0684 102.376 78.5964 102.024C79.1244 101.656 79.7564 101.376 80.4924 101.184C81.2284 100.992 82.0524 100.896 82.9644 100.896H83.9964V100.536C83.9964 99.912 83.7964 99.456 83.3964 99.168C82.9804 98.88 82.3324 98.736 81.4524 98.736C80.2684 98.736 79.2124 99 78.2844 99.528L77.7804 97.536C78.8524 96.912 80.1484 96.6 81.6684 96.6C83.2684 96.6 84.4844 96.928 85.3164 97.584C85.7004 97.888 86.0124 98.28 86.2524 98.76C86.5084 99.24 86.6364 99.816 86.6364 100.488V108H84.5244ZM81.2364 106.152C81.7484 106.152 82.2604 106.032 82.7724 105.792C83.2844 105.536 83.6924 105.2 83.9964 104.784V102.6H83.5404C82.2284 102.6 81.2684 102.768 80.6604 103.104C80.0684 103.44 79.7724 103.976 79.7724 104.712C79.7724 105.672 80.2604 106.152 81.2364 106.152ZM95.9261 108H92.7341L88.3181 96.96H91.0781L94.4141 105.816L97.8941 96.96H100.486L95.9261 108ZM107.219 96.6C108.627 96.6 109.715 96.96 110.483 97.68C111.251 98.384 111.635 99.384 111.635 100.68C111.635 100.856 111.619 101.048 111.587 101.256C111.571 101.448 111.539 101.64 111.491 101.832C111.459 102.024 111.411 102.2 111.347 102.36C111.299 102.504 111.243 102.624 111.179 102.72H104.195C104.227 103.2 104.315 103.656 104.459 104.088C104.603 104.504 104.811 104.872 105.083 105.192C105.355 105.496 105.683 105.744 106.067 105.936C106.467 106.112 106.931 106.2 107.459 106.2C108.051 106.2 108.675 106.088 109.331 105.864C110.003 105.64 110.571 105.36 111.035 105.024L111.467 106.992C111.259 107.12 111.003 107.264 110.699 107.424C110.395 107.568 110.051 107.704 109.667 107.832C109.283 107.96 108.867 108.064 108.419 108.144C107.987 108.24 107.531 108.288 107.051 108.288C106.155 108.288 105.363 108.136 104.675 107.832C103.987 107.512 103.411 107.088 102.947 106.56C102.483 106.016 102.131 105.392 101.891 104.688C101.651 103.984 101.531 103.248 101.531 102.48C101.531 101.696 101.651 100.952 101.891 100.248C102.147 99.528 102.515 98.896 102.995 98.352C103.475 97.808 104.067 97.384 104.771 97.08C105.491 96.76 106.307 96.6 107.219 96.6ZM107.147 98.664C106.475 98.664 105.899 98.864 105.419 99.264C104.955 99.648 104.619 100.176 104.411 100.848H108.995C109.011 100.8 109.019 100.744 109.019 100.68C109.035 100.616 109.043 100.536 109.043 100.44C109.043 99.928 108.867 99.504 108.515 99.168C108.163 98.832 107.707 98.664 107.147 98.664ZM117.104 108H114.464V90.24H117.104V108Z" fill="#1E1E1E"/>
</svg>
