<svg width="77" height="36" viewBox="0 0 77 36" fill="none" xmlns="http://www.w3.org/2000/svg">
<path d="M47.252 7.16H44.578V15H42.968V7.16H40.294V5.76H47.252V7.16ZM51.0875 9.96C50.9941 9.88533 50.8495 9.82467 50.6535 9.778C50.4575 9.73133 50.2895 9.708 50.1495 9.708C49.9628 9.708 49.8088 9.75467 49.6875 9.848C49.5661 9.932 49.4588 10.0487 49.3655 10.198C49.2721 10.338 49.1928 10.5013 49.1275 10.688C49.0621 10.8747 49.0015 11.066 48.9455 11.262V15H47.4055V8.56H48.6095L48.6795 9.904H48.7355C48.8288 9.708 48.9268 9.51667 49.0295 9.33C49.1321 9.14333 49.2488 8.98 49.3795 8.84C49.5101 8.69067 49.6595 8.574 49.8275 8.49C50.0048 8.39667 50.2101 8.35 50.4435 8.35C50.8168 8.35 51.1668 8.47133 51.4935 8.714L51.0875 9.96ZM56.4934 15L56.3814 14.118H56.3254C56.0734 14.4353 55.7281 14.692 55.2894 14.888C54.8601 15.0747 54.4214 15.168 53.9734 15.168C53.3854 15.168 52.9234 15 52.5874 14.664C52.2514 14.3187 52.0834 13.866 52.0834 13.306C52.0834 12.9233 52.1628 12.5827 52.3214 12.284C52.4894 11.976 52.7274 11.7193 53.0354 11.514C53.3434 11.2993 53.7121 11.136 54.1414 11.024C54.5708 10.912 55.0514 10.856 55.5834 10.856H56.1854V10.646C56.1854 10.282 56.0688 10.016 55.8354 9.848C55.5928 9.68 55.2148 9.596 54.7014 9.596C54.0108 9.596 53.3948 9.75 52.8534 10.058L52.5594 8.896C53.1848 8.532 53.9408 8.35 54.8274 8.35C55.7608 8.35 56.4701 8.54133 56.9554 8.924C57.1794 9.10133 57.3614 9.33 57.5014 9.61C57.6508 9.89 57.7254 10.226 57.7254 10.618V15H56.4934ZM54.5754 13.922C54.8741 13.922 55.1728 13.852 55.4714 13.712C55.7701 13.5627 56.0081 13.3667 56.1854 13.124V11.85H55.9194C55.1541 11.85 54.5941 11.948 54.2394 12.144C53.8941 12.34 53.7214 12.6527 53.7214 13.082C53.7214 13.642 54.0061 13.922 54.5754 13.922ZM63.1444 15H61.2824L58.7064 8.56H60.3164L62.2624 13.726L64.2924 8.56H65.8044L63.1444 15ZM69.7318 8.35C70.5532 8.35 71.1878 8.56 71.6358 8.98C72.0838 9.39067 72.3078 9.974 72.3078 10.73C72.3078 10.8327 72.2985 10.9447 72.2798 11.066C72.2705 11.178 72.2518 11.29 72.2238 11.402C72.2052 11.514 72.1772 11.6167 72.1398 11.71C72.1118 11.794 72.0792 11.864 72.0418 11.92H67.9678C67.9865 12.2 68.0378 12.466 68.1218 12.718C68.2058 12.9607 68.3272 13.1753 68.4858 13.362C68.6445 13.5393 68.8358 13.684 69.0598 13.796C69.2932 13.8987 69.5638 13.95 69.8718 13.95C70.2172 13.95 70.5812 13.8847 70.9638 13.754C71.3558 13.6233 71.6872 13.46 71.9578 13.264L72.2098 14.412C72.0885 14.4867 71.9392 14.5707 71.7618 14.664C71.5845 14.748 71.3838 14.8273 71.1598 14.902C70.9358 14.9767 70.6932 15.0373 70.4318 15.084C70.1798 15.14 69.9138 15.168 69.6338 15.168C69.1112 15.168 68.6492 15.0793 68.2478 14.902C67.8465 14.7153 67.5105 14.468 67.2398 14.16C66.9692 13.8427 66.7638 13.4787 66.6238 13.068C66.4838 12.6573 66.4138 12.228 66.4138 11.78C66.4138 11.3227 66.4838 10.8887 66.6238 10.478C66.7732 10.058 66.9878 9.68933 67.2678 9.372C67.5478 9.05467 67.8932 8.80733 68.3038 8.63C68.7238 8.44333 69.1998 8.35 69.7318 8.35ZM69.6898 9.554C69.2978 9.554 68.9618 9.67067 68.6818 9.904C68.4112 10.128 68.2152 10.436 68.0938 10.828H70.7678C70.7772 10.8 70.7818 10.7673 70.7818 10.73C70.7912 10.6927 70.7958 10.646 70.7958 10.59C70.7958 10.2913 70.6932 10.044 70.4878 9.848C70.2825 9.652 70.0165 9.554 69.6898 9.554ZM75.4982 15H73.9582V4.64H75.4982V15ZM47.252 23.16H44.578V31H42.968V23.16H40.294V21.76H47.252V23.16ZM50.0529 31H48.5129V24.56H50.0529V31ZM48.2889 22.488C48.2889 22.3573 48.3122 22.2313 48.3589 22.11C48.4149 21.9887 48.4895 21.8813 48.5829 21.788C48.6762 21.6853 48.7789 21.606 48.8909 21.55C49.0122 21.494 49.1429 21.466 49.2829 21.466C49.4135 21.466 49.5395 21.494 49.6609 21.55C49.7822 21.606 49.8895 21.6853 49.9829 21.788C50.0855 21.8813 50.1649 21.9887 50.2209 22.11C50.2769 22.2313 50.3049 22.3573 50.3049 22.488C50.3049 22.628 50.2769 22.7587 50.2209 22.88C50.1649 22.992 50.0855 23.0947 49.9829 23.188C49.8895 23.2813 49.7822 23.356 49.6609 23.412C49.5395 23.4587 49.4135 23.482 49.2829 23.482C49.0122 23.482 48.7789 23.384 48.5829 23.188C48.3869 22.992 48.2889 22.7587 48.2889 22.488ZM56.1575 31V26.744C56.1575 25.9787 55.8542 25.596 55.2475 25.596C55.0982 25.596 54.9349 25.624 54.7575 25.68C54.5895 25.736 54.4215 25.82 54.2535 25.932C54.0949 26.0347 53.9455 26.1653 53.8055 26.324C53.6749 26.4827 53.5815 26.6647 53.5255 26.87V31H51.9855V24.56H53.1895L53.2595 25.512H53.3155C53.5022 25.12 53.7962 24.8307 54.1975 24.644C54.6082 24.448 55.0422 24.35 55.4995 24.35C55.9382 24.35 56.3349 24.4387 56.6895 24.616C57.0535 24.784 57.3242 25.078 57.5015 25.498C57.6882 25.1153 57.9822 24.8307 58.3835 24.644C58.7849 24.448 59.2142 24.35 59.6715 24.35C59.9702 24.35 60.2502 24.392 60.5115 24.476C60.7822 24.5507 61.0155 24.6767 61.2115 24.854C61.4169 25.0313 61.5755 25.2647 61.6875 25.554C61.8089 25.8433 61.8695 26.198 61.8695 26.618V31H60.3295V26.744C60.3295 25.9787 60.0262 25.596 59.4195 25.596C59.2702 25.596 59.1069 25.624 58.9295 25.68C58.7615 25.736 58.5935 25.82 58.4255 25.932C58.2669 26.0347 58.1175 26.1653 57.9775 26.324C57.8469 26.4827 57.7535 26.6647 57.6975 26.87V31H56.1575ZM66.601 24.35C67.4223 24.35 68.057 24.56 68.505 24.98C68.953 25.3907 69.177 25.974 69.177 26.73C69.177 26.8327 69.1677 26.9447 69.149 27.066C69.1397 27.178 69.121 27.29 69.093 27.402C69.0743 27.514 69.0463 27.6167 69.009 27.71C68.981 27.794 68.9483 27.864 68.911 27.92H64.837C64.8557 28.2 64.907 28.466 64.991 28.718C65.075 28.9607 65.1963 29.1753 65.355 29.362C65.5137 29.5393 65.705 29.684 65.929 29.796C66.1623 29.8987 66.433 29.95 66.741 29.95C67.0863 29.95 67.4503 29.8847 67.833 29.754C68.225 29.6233 68.5563 29.46 68.827 29.264L69.079 30.412C68.9577 30.4867 68.8083 30.5707 68.631 30.664C68.4537 30.748 68.253 30.8273 68.029 30.902C67.805 30.9767 67.5623 31.0373 67.301 31.084C67.049 31.14 66.783 31.168 66.503 31.168C65.9803 31.168 65.5183 31.0793 65.117 30.902C64.7157 30.7153 64.3797 30.468 64.109 30.16C63.8383 29.8427 63.633 29.4787 63.493 29.068C63.353 28.6573 63.283 28.228 63.283 27.78C63.283 27.3227 63.353 26.8887 63.493 26.478C63.6423 26.058 63.857 25.6893 64.137 25.372C64.417 25.0547 64.7623 24.8073 65.173 24.63C65.593 24.4433 66.069 24.35 66.601 24.35ZM66.559 25.554C66.167 25.554 65.831 25.6707 65.551 25.904C65.2803 26.128 65.0843 26.436 64.963 26.828H67.637C67.6463 26.8 67.651 26.7673 67.651 26.73C67.6603 26.6927 67.665 26.646 67.665 26.59C67.665 26.2913 67.5623 26.044 67.357 25.848C67.1517 25.652 66.8857 25.554 66.559 25.554Z" fill="#1E1E1E"/>
<path d="M36 17.3925C36 25.6602 29.9017 32.5303 21.9671 33.7417C22.034 33.3748 22.0528 32.9948 22.0077 32.6097C22.0077 32.6097 21.9603 32.2045 21.8983 31.6742C24.7154 31.1943 27.2588 29.9016 29.2748 28.0426C29.1538 27.942 29.0332 27.8115 28.9144 27.6382C28.379 26.8569 29.0791 26.0818 29.0791 25.3986C29.0791 24.7285 27.7281 24.7836 27.6786 24.3398C27.5079 22.8027 28.6219 22.7818 29.2158 22.1879C29.8096 21.594 28.6288 20.2438 27.866 20.3309C27.0981 20.4129 24.9365 19.9763 25.134 18.3225C25.3746 16.3082 22.5677 16.4859 22.1658 15.5457C21.5798 14.1753 22.5539 12.4944 23.8244 12.1125C25.6239 11.5716 27.3966 10.1035 27.2582 8.46929C27.1013 6.61841 26.2635 4.94918 24.8837 3.95759C23.4478 3.37588 21.8995 3.01618 20.2796 2.92541C18.8339 2.98259 17.5629 3.30388 17.6209 3.96576C17.7631 5.58776 22.3755 6.00906 21.6015 7.52529C21.1979 8.3157 18.1695 9.43129 18.7351 10.6076C19.1029 11.3726 20.0083 10.717 19.6703 12.1856C19.5148 12.8614 18.9222 14.1311 18.011 14.2131C17.0792 14.3001 16.3032 11.8315 13.7669 11.7505C12.5678 11.7122 10.8786 13.6214 12.3129 14.9758C13.1815 15.7961 14.8115 13.99 15.2925 15.4008C15.6315 16.395 15.2469 18.4835 16.8291 19.3563C17.4058 19.6745 18.29 19.9518 19.1645 20.3962C17.8665 20.6612 16.2717 21.1558 14.3885 21.8812L12.8018 21.4626C13.466 20.9096 14.5452 20.5204 14.2737 19.3122C13.8748 17.5371 10.7926 18.2065 8.66776 16.0817C8.01588 15.4299 6.62547 13.2656 6.63117 10.6654C5.572 12.6773 4.96917 14.9653 4.96917 17.3925C4.96917 18.1396 5.02617 18.8738 5.13576 19.5908C5.11076 19.5903 5.08606 19.586 5.06111 19.586C4.39194 19.586 3.73564 19.7266 3.12741 19.9924C2.99306 19.1451 2.92135 18.2772 2.92135 17.3926C2.92135 8.27288 10.3409 0.853058 19.4606 0.853058C28.5804 0.85294 36 8.27276 36 17.3925ZM23.5935 22.2132L19.5541 24.0699L19.6167 23.1898L22.2335 22.0085C21.8603 21.9818 21.4736 21.9716 21.0875 21.9716C19.6416 21.9716 17.1989 22.7035 14.4971 23.7759L5.832 21.4903C5.02223 21.2766 4.16011 21.4082 3.45088 21.8538L3.02482 22.1215C2.60888 22.3828 2.60447 22.9875 3.01653 23.2549L8.22529 26.6342C6.981 27.2705 5.80047 27.9168 4.75976 28.5341L2.08694 27.119C1.65035 26.8879 1.13417 26.8605 0.675644 27.0441L0.422643 27.1455C0.0453493 27.2965 -0.112709 27.7452 0.0867023 28.0994L1.55911 30.7154L1.55976 30.7152C1.00423 31.1931 0.687643 31.5895 0.687643 31.8638C0.687643 32.6847 1.69788 32.8899 2.58835 32.8899C4.17658 32.8899 25.1511 28.0875 25.1511 23.7366C25.151 22.875 24.5617 22.4441 23.5935 22.2132ZM14.7501 30.7078L19.3655 29.0819C19.5688 29.0103 19.7861 29.1458 19.8111 29.3599L20.2158 32.8196C20.3169 33.6842 19.8519 34.5161 19.0626 34.8831L18.6297 35.0842C18.3593 35.2099 18.0386 35.1425 17.8416 34.9188L14.6094 31.2471C14.4521 31.0682 14.5253 30.787 14.7501 30.7078Z" fill="#1E1E1E"/>
</svg>
