<svg width="202" height="67" viewBox="0 0 202 67" fill="none" xmlns="http://www.w3.org/2000/svg">
<path d="M69 32.3356C69 48.1821 57.3116 61.3499 42.1035 63.6716C42.2318 62.9683 42.2678 62.24 42.1814 61.5019C42.1814 61.5019 42.0906 60.7254 41.9717 59.709C47.3712 58.7891 52.2461 56.3115 56.11 52.7484C55.878 52.5555 55.647 52.3053 55.4193 51.9732C54.3931 50.4758 55.735 48.9901 55.735 47.6806C55.735 46.3962 53.1456 46.5019 53.0507 45.6512C52.7235 42.7052 54.8586 42.6651 55.9969 41.5268C57.1352 40.3885 54.8718 37.8007 53.4098 37.9676C51.9379 38.1248 47.7949 37.2879 48.1735 34.1181C48.6347 30.2573 43.2548 30.598 42.4844 28.7959C41.3613 26.1693 43.2283 22.9475 45.6633 22.2156C49.1124 21.1789 52.5102 18.3651 52.2448 15.2328C51.9441 11.6853 50.3384 8.48593 47.6938 6.58539C44.9417 5.47045 41.9741 4.78102 38.8693 4.60705C36.0984 4.71664 33.6622 5.33245 33.7734 6.60106C34.0459 9.70989 42.8863 10.5174 41.4028 13.4235C40.6294 14.9384 34.8248 17.0767 35.9089 19.3313C36.614 20.7976 38.3492 19.5409 37.7014 22.3558C37.4033 23.6511 36.2676 26.0847 34.5211 26.2417C32.7351 26.4085 31.2479 21.677 26.3865 21.5219C24.0883 21.4483 20.8506 25.1076 23.5998 27.7037C25.2646 29.2758 28.3886 25.8142 29.3107 28.5183C29.9604 30.4238 29.2232 34.4267 32.2557 36.0996C33.3612 36.7094 35.0558 37.241 36.7319 38.0927C34.2442 38.6007 31.1874 39.5487 27.5779 40.939L24.5367 40.1366C25.8098 39.0768 27.8784 38.3308 27.3579 36.015C26.5934 32.6127 20.6859 33.8959 16.6132 29.8233C15.3638 28.5741 12.6988 24.4258 12.7097 19.442C10.6797 23.2982 9.52425 27.6835 9.52425 32.3357C9.52425 33.7677 9.6335 35.1747 9.84354 36.549C9.79563 36.5482 9.74827 36.5398 9.70047 36.5398C8.41788 36.5398 7.15998 36.8093 5.9942 37.3188C5.73669 35.6947 5.59925 34.0313 5.59925 32.3358C5.59925 14.8564 19.8201 0.63504 37.2995 0.63504C54.7791 0.634815 69 14.8561 69 32.3356ZM45.2208 41.5753L37.4786 45.1341L37.5987 43.4471L42.6143 41.1829C41.8989 41.1317 41.1577 41.1122 40.4176 41.1122C37.6465 41.1122 32.9645 42.515 27.7861 44.5705L11.178 40.1897C9.62594 39.7802 7.97355 40.0325 6.61418 40.8865L5.79757 41.3995C5.00035 41.9003 4.99189 43.0593 5.78167 43.5719L15.7651 50.0488C13.3802 51.2685 11.1176 52.5073 9.12288 53.6903L3.99996 50.9781C3.16317 50.5351 2.17383 50.4826 1.29498 50.8346L0.810067 51.0289C0.0869196 51.3184 -0.216027 52.1784 0.166179 52.8572L2.9883 57.8712L2.98954 57.8708C1.92478 58.7868 1.31798 59.5465 1.31798 60.0722C1.31798 61.6457 3.25427 62.0389 4.961 62.0389C8.00512 62.0389 48.2063 52.8343 48.2063 44.4953C48.2061 42.8438 47.0766 42.0178 45.2208 41.5753ZM28.2709 57.8567L37.1173 54.7404C37.5069 54.6031 37.9233 54.8628 37.9713 55.2732L38.7469 61.9043C38.9407 63.5614 38.0494 65.1559 36.5366 65.8592L35.7069 66.2448C35.1888 66.4856 34.5741 66.3565 34.1965 65.9278L28.0014 58.8902C27.6998 58.5475 27.8403 58.0084 28.2709 57.8567Z" fill="#1E1E1E"/>
<path d="M95.432 31.56H90.848V45H88.088V31.56H83.504V29.16H95.432V31.56ZM100.234 45H97.5935V33.96H100.234V45ZM97.2095 30.408C97.2095 30.184 97.2495 29.968 97.3295 29.76C97.4255 29.552 97.5535 29.368 97.7135 29.208C97.8735 29.032 98.0495 28.896 98.2415 28.8C98.4495 28.704 98.6735 28.656 98.9135 28.656C99.1375 28.656 99.3535 28.704 99.5615 28.8C99.7695 28.896 99.9535 29.032 100.114 29.208C100.29 29.368 100.426 29.552 100.522 29.76C100.618 29.968 100.666 30.184 100.666 30.408C100.666 30.648 100.618 30.872 100.522 31.08C100.426 31.272 100.29 31.448 100.114 31.608C99.9535 31.768 99.7695 31.896 99.5615 31.992C99.3535 32.072 99.1375 32.112 98.9135 32.112C98.4495 32.112 98.0495 31.944 97.7135 31.608C97.3775 31.272 97.2095 30.872 97.2095 30.408ZM110.699 45V37.704C110.699 36.392 110.179 35.736 109.139 35.736C108.883 35.736 108.603 35.784 108.299 35.88C108.011 35.976 107.723 36.12 107.435 36.312C107.163 36.488 106.907 36.712 106.667 36.984C106.443 37.256 106.283 37.568 106.187 37.92V45H103.547V33.96H105.611L105.731 35.592H105.827C106.147 34.92 106.651 34.424 107.339 34.104C108.043 33.768 108.787 33.6 109.571 33.6C110.323 33.6 111.003 33.752 111.611 34.056C112.235 34.344 112.699 34.848 113.003 35.568C113.323 34.912 113.827 34.424 114.515 34.104C115.203 33.768 115.939 33.6 116.723 33.6C117.235 33.6 117.715 33.672 118.163 33.816C118.627 33.944 119.027 34.16 119.363 34.464C119.715 34.768 119.987 35.168 120.179 35.664C120.387 36.16 120.491 36.768 120.491 37.488V45H117.851V37.704C117.851 36.392 117.331 35.736 116.291 35.736C116.035 35.736 115.755 35.784 115.451 35.88C115.163 35.976 114.875 36.12 114.587 36.312C114.315 36.488 114.059 36.712 113.819 36.984C113.595 37.256 113.435 37.568 113.339 37.92V45H110.699ZM128.602 33.6C130.01 33.6 131.098 33.96 131.866 34.68C132.634 35.384 133.018 36.384 133.018 37.68C133.018 37.856 133.002 38.048 132.97 38.256C132.954 38.448 132.922 38.64 132.874 38.832C132.842 39.024 132.794 39.2 132.73 39.36C132.682 39.504 132.626 39.624 132.562 39.72H125.578C125.61 40.2 125.698 40.656 125.842 41.088C125.986 41.504 126.194 41.872 126.466 42.192C126.738 42.496 127.066 42.744 127.45 42.936C127.85 43.112 128.314 43.2 128.842 43.2C129.434 43.2 130.058 43.088 130.714 42.864C131.386 42.64 131.954 42.36 132.418 42.024L132.85 43.992C132.642 44.12 132.386 44.264 132.082 44.424C131.778 44.568 131.434 44.704 131.05 44.832C130.666 44.96 130.25 45.064 129.802 45.144C129.37 45.24 128.914 45.288 128.434 45.288C127.538 45.288 126.746 45.136 126.058 44.832C125.37 44.512 124.794 44.088 124.33 43.56C123.866 43.016 123.514 42.392 123.274 41.688C123.034 40.984 122.914 40.248 122.914 39.48C122.914 38.696 123.034 37.952 123.274 37.248C123.53 36.528 123.898 35.896 124.378 35.352C124.858 34.808 125.45 34.384 126.154 34.08C126.874 33.76 127.69 33.6 128.602 33.6ZM128.53 35.664C127.858 35.664 127.282 35.864 126.802 36.264C126.338 36.648 126.002 37.176 125.794 37.848H130.378C130.394 37.8 130.402 37.744 130.402 37.68C130.418 37.616 130.426 37.536 130.426 37.44C130.426 36.928 130.25 36.504 129.898 36.168C129.546 35.832 129.09 35.664 128.53 35.664ZM151.682 31.56H147.098V45H144.338V31.56H139.754V29.16H151.682V31.56ZM158.257 36.36C158.097 36.232 157.849 36.128 157.513 36.048C157.177 35.968 156.889 35.928 156.649 35.928C156.329 35.928 156.065 36.008 155.857 36.168C155.649 36.312 155.465 36.512 155.305 36.768C155.145 37.008 155.009 37.288 154.897 37.608C154.785 37.928 154.681 38.256 154.585 38.592V45H151.945V33.96H154.009L154.129 36.264H154.225C154.385 35.928 154.553 35.6 154.729 35.28C154.905 34.96 155.105 34.68 155.329 34.44C155.553 34.184 155.809 33.984 156.097 33.84C156.401 33.68 156.753 33.6 157.153 33.6C157.793 33.6 158.393 33.808 158.953 34.224L158.257 36.36ZM167.524 45L167.332 43.488H167.236C166.804 44.032 166.212 44.472 165.46 44.808C164.724 45.128 163.972 45.288 163.204 45.288C162.196 45.288 161.404 45 160.828 44.424C160.252 43.832 159.964 43.056 159.964 42.096C159.964 41.44 160.1 40.856 160.372 40.344C160.66 39.816 161.068 39.376 161.596 39.024C162.124 38.656 162.756 38.376 163.492 38.184C164.228 37.992 165.052 37.896 165.964 37.896H166.996V37.536C166.996 36.912 166.796 36.456 166.396 36.168C165.98 35.88 165.332 35.736 164.452 35.736C163.268 35.736 162.212 36 161.284 36.528L160.78 34.536C161.852 33.912 163.148 33.6 164.668 33.6C166.268 33.6 167.484 33.928 168.316 34.584C168.7 34.888 169.012 35.28 169.252 35.76C169.508 36.24 169.636 36.816 169.636 37.488V45H167.524ZM164.236 43.152C164.748 43.152 165.26 43.032 165.772 42.792C166.284 42.536 166.692 42.2 166.996 41.784V39.6H166.54C165.228 39.6 164.268 39.768 163.66 40.104C163.068 40.44 162.772 40.976 162.772 41.712C162.772 42.672 163.26 43.152 164.236 43.152ZM178.926 45H175.734L171.318 33.96H174.078L177.414 42.816L180.894 33.96H183.486L178.926 45ZM190.219 33.6C191.627 33.6 192.715 33.96 193.483 34.68C194.251 35.384 194.635 36.384 194.635 37.68C194.635 37.856 194.619 38.048 194.587 38.256C194.571 38.448 194.539 38.64 194.491 38.832C194.459 39.024 194.411 39.2 194.347 39.36C194.299 39.504 194.243 39.624 194.179 39.72H187.195C187.227 40.2 187.315 40.656 187.459 41.088C187.603 41.504 187.811 41.872 188.083 42.192C188.355 42.496 188.683 42.744 189.067 42.936C189.467 43.112 189.931 43.2 190.459 43.2C191.051 43.2 191.675 43.088 192.331 42.864C193.003 42.64 193.571 42.36 194.035 42.024L194.467 43.992C194.259 44.12 194.003 44.264 193.699 44.424C193.395 44.568 193.051 44.704 192.667 44.832C192.283 44.96 191.867 45.064 191.419 45.144C190.987 45.24 190.531 45.288 190.051 45.288C189.155 45.288 188.363 45.136 187.675 44.832C186.987 44.512 186.411 44.088 185.947 43.56C185.483 43.016 185.131 42.392 184.891 41.688C184.651 40.984 184.531 40.248 184.531 39.48C184.531 38.696 184.651 37.952 184.891 37.248C185.147 36.528 185.515 35.896 185.995 35.352C186.475 34.808 187.067 34.384 187.771 34.08C188.491 33.76 189.307 33.6 190.219 33.6ZM190.147 35.664C189.475 35.664 188.899 35.864 188.419 36.264C187.955 36.648 187.619 37.176 187.411 37.848H191.995C192.011 37.8 192.019 37.744 192.019 37.68C192.035 37.616 192.043 37.536 192.043 37.44C192.043 36.928 191.867 36.504 191.515 36.168C191.163 35.832 190.707 35.664 190.147 35.664ZM200.104 45H197.464V27.24H200.104V45Z" fill="#1E1E1E"/>
</svg>
