<svg width="69" height="69" viewBox="0 0 69 69" fill="none" xmlns="http://www.w3.org/2000/svg">
<path d="M69 33.3356C69 49.1821 57.3116 62.3499 42.1035 64.6716C42.2318 63.9683 42.2678 63.24 42.1814 62.5019C42.1814 62.5019 42.0906 61.7254 41.9717 60.709C47.3712 59.7891 52.2461 57.3115 56.11 53.7484C55.878 53.5555 55.647 53.3053 55.4193 52.9732C54.3931 51.4758 55.735 49.9901 55.735 48.6806C55.735 47.3962 53.1455 47.5019 53.0507 46.6512C52.7235 43.7052 54.8586 43.6651 55.9969 42.5268C57.1352 41.3885 54.8718 38.8007 53.4098 38.9676C51.9379 39.1248 47.7949 38.2879 48.1735 35.1181C48.6347 31.2573 43.2548 31.598 42.4844 29.7959C41.3613 27.1693 43.2283 23.9475 45.6633 23.2156C49.1124 22.1789 52.5102 19.3651 52.2448 16.2328C51.9441 12.6853 50.3384 9.48593 47.6938 7.58539C44.9417 6.47045 41.9741 5.78102 38.8693 5.60705C36.0984 5.71664 33.6622 6.33245 33.7733 7.60106C34.0459 10.7099 42.8863 11.5174 41.4028 14.4235C40.6294 15.9384 34.8248 18.0767 35.9089 20.3313C36.614 21.7976 38.3492 20.5409 37.7014 23.3558C37.4033 24.6511 36.2676 27.0847 34.5211 27.2417C32.7351 27.4085 31.2479 22.677 26.3865 22.5219C24.0883 22.4483 20.8506 26.1076 23.5998 28.7037C25.2646 30.2758 28.3886 26.8142 29.3107 29.5183C29.9604 31.4238 29.2232 35.4267 32.2557 37.0996C33.3612 37.7094 35.0558 38.241 36.7319 39.0927C34.2442 39.6007 31.1874 40.5487 27.5779 41.939L24.5367 41.1366C25.8098 40.0768 27.8784 39.3308 27.3579 37.015C26.5934 33.6127 20.6859 34.8959 16.6132 30.8233C15.3638 29.5741 12.6988 25.4258 12.7097 20.442C10.6797 24.2982 9.52425 28.6835 9.52425 33.3357C9.52425 34.7677 9.6335 36.1747 9.84354 37.549C9.79563 37.5482 9.74827 37.5398 9.70047 37.5398C8.41788 37.5398 7.15998 37.8093 5.9942 38.3188C5.73669 36.6947 5.59925 35.0313 5.59925 33.3358C5.59925 15.8564 19.8201 1.63504 37.2995 1.63504C54.7791 1.63481 69 15.8561 69 33.3356ZM45.2208 42.5753L37.4786 46.1341L37.5987 44.4471L42.6143 42.1829C41.8989 42.1317 41.1577 42.1122 40.4176 42.1122C37.6465 42.1122 32.9645 43.515 27.7861 45.5704L11.178 41.1897C9.62594 40.7803 7.97355 41.0325 6.61418 41.8865L5.79757 42.3995C5.00035 42.9003 4.99189 44.0593 5.78167 44.5719L15.7651 51.0488C13.3802 52.2685 11.1176 53.5073 9.12288 54.6903L3.99996 51.9781C3.16317 51.5351 2.17383 51.4826 1.29498 51.8346L0.810067 52.0289C0.0869196 52.3184 -0.216027 53.1784 0.166179 53.8572L2.9883 58.8712L2.98954 58.8708C1.92478 59.7868 1.31798 60.5465 1.31798 61.0722C1.31798 62.6457 3.25427 63.0389 4.961 63.0389C8.00512 63.0389 48.2063 53.8343 48.2063 45.4953C48.2061 43.8438 47.0766 43.0178 45.2208 42.5753ZM28.2709 58.8567L37.1173 55.7404C37.5069 55.6031 37.9233 55.8628 37.9713 56.2732L38.7469 62.9043C38.9407 64.5614 38.0494 66.1559 36.5366 66.8592L35.7069 67.2448C35.1888 67.4856 34.5741 67.3565 34.1965 66.9278L28.0014 59.8902C27.6998 59.5475 27.8403 59.0084 28.2709 58.8567Z" fill="#1E1E1E"/>
</svg>
